<svg width="272" height="525" viewBox="0 0 272 525" fill="none" xmlns="http://www.w3.org/2000/svg">
<path fill-rule="evenodd" clip-rule="evenodd" d="M208.373 10H232C248.569 10 262 23.4315 262 40V485C262 501.569 248.569 515 232 515H40C23.4315 515 10 501.569 10 485V40C10 23.4315 23.4315 10 40 10H62.6274L63.6193 16.3242C64.7639 23.6219 71.0512 29 78.4381 29H192.562C199.949 29 206.236 23.6219 207.381 16.3242L208.373 10ZM0 40C0 17.9086 17.9086 0 40 0H232C254.091 0 272 17.9086 272 40V485C272 507.091 254.091 525 232 525H40C17.9086 525 0 507.091 0 485V40Z" fill="#F46A2B"/>
</svg>
