<svg width="138" height="34" viewBox="0 0 138 34" fill="none" xmlns="http://www.w3.org/2000/svg">
<path d="M0 0.563534H7.63256V27.2376H24.1698V33.4365H0V0.563534Z" fill="#1A1A1A"/>
<path d="M43.8541 34C40.4304 34 37.3366 33.2643 34.5725 31.7928C31.8399 30.3214 29.6883 28.302 28.1178 25.7348C26.5787 23.1363 25.8092 20.2247 25.8092 17C25.8092 13.7753 26.5787 10.8794 28.1178 8.31215C29.6883 5.71363 31.8399 3.67864 34.5725 2.20718C37.3366 0.735728 40.4304 0 43.8541 0C47.2777 0 50.3559 0.735728 53.0885 2.20718C55.8212 3.67864 57.9727 5.71363 59.5432 8.31215C61.1137 10.8794 61.899 13.7753 61.899 17C61.899 20.2247 61.1137 23.1363 59.5432 25.7348C57.9727 28.302 55.8212 30.3214 53.0885 31.7928C50.3559 33.2643 47.2777 34 43.8541 34ZM43.8541 27.5193C45.8015 27.5193 47.5604 27.081 49.1309 26.2044C50.7014 25.2965 51.9264 24.0442 52.8058 22.4475C53.7167 20.8508 54.1722 19.035 54.1722 17C54.1722 14.965 53.7167 13.1492 52.8058 11.5525C51.9264 9.9558 50.7014 8.71915 49.1309 7.84254C47.5604 6.93462 45.8015 6.48066 43.8541 6.48066C41.9067 6.48066 40.1477 6.93462 38.5773 7.84254C37.0068 8.71915 35.7661 9.9558 34.8552 11.5525C33.9757 13.1492 33.536 14.965 33.536 17C33.536 19.035 33.9757 20.8508 34.8552 22.4475C35.7661 24.0442 37.0068 25.2965 38.5773 26.2044C40.1477 27.081 41.9067 27.5193 43.8541 27.5193Z" fill="#1A1A1A"/>
<path d="M89.9203 16.4834H96.8933V29.8204C95.1029 31.1667 93.0299 32.1998 90.6742 32.9199C88.3184 33.64 85.947 34 83.5599 34C80.1362 34 77.0581 33.2799 74.3254 31.8398C71.5928 30.3683 69.4412 28.349 67.8707 25.7818C66.3316 23.1832 65.5621 20.256 65.5621 17C65.5621 13.744 66.3316 10.8324 67.8707 8.26519C69.4412 5.66667 71.6085 3.64733 74.3725 2.20718C77.1366 0.735728 80.2461 0 83.7012 0C86.5909 0 89.2136 0.485267 91.5693 1.4558C93.9251 2.42633 95.9039 3.83517 97.5058 5.68232L92.6059 10.1906C90.2501 7.71731 87.4076 6.48066 84.0781 6.48066C81.9737 6.48066 80.1048 6.91897 78.4715 7.79558C76.8382 8.67219 75.5661 9.90884 74.6552 11.5055C73.7443 13.1022 73.2889 14.9337 73.2889 17C73.2889 19.035 73.7443 20.8508 74.6552 22.4475C75.5661 24.0442 76.8225 25.2965 78.4244 26.2044C80.0577 27.081 81.9109 27.5193 83.9839 27.5193C86.1826 27.5193 88.1614 27.0497 89.9203 26.1105V16.4834Z" fill="#1A1A1A"/>
<path d="M119.955 34C116.531 34 113.438 33.2643 110.674 31.7928C107.941 30.3214 105.789 28.302 104.219 25.7348C102.68 23.1363 101.91 20.2247 101.91 17C101.91 13.7753 102.68 10.8794 104.219 8.31215C105.789 5.71363 107.941 3.67864 110.674 2.20718C113.438 0.735728 116.531 0 119.955 0C123.379 0 126.457 0.735728 129.19 2.20718C131.922 3.67864 134.074 5.71363 135.644 8.31215C137.215 10.8794 138 13.7753 138 17C138 20.2247 137.215 23.1363 135.644 25.7348C134.074 28.302 131.922 30.3214 129.19 31.7928C126.457 33.2643 123.379 34 119.955 34ZM119.955 27.5193C121.903 27.5193 123.661 27.081 125.232 26.2044C126.802 25.2965 128.027 24.0442 128.907 22.4475C129.818 20.8508 130.273 19.035 130.273 17C130.273 14.965 129.818 13.1492 128.907 11.5525C128.027 9.9558 126.802 8.71915 125.232 7.84254C123.661 6.93462 121.903 6.48066 119.955 6.48066C118.008 6.48066 116.249 6.93462 114.678 7.84254C113.108 8.71915 111.867 9.9558 110.956 11.5525C110.077 13.1492 109.637 14.965 109.637 17C109.637 19.035 110.077 20.8508 110.956 22.4475C111.867 24.0442 113.108 25.2965 114.678 26.2044C116.249 27.081 118.008 27.5193 119.955 27.5193Z" fill="#1A1A1A"/>
</svg>
